<svg width="32" height="32" viewBox="0 0 32 32" fill="none" xmlns="http://www.w3.org/2000/svg">
<rect x="0.5" y="0.5" width="31" height="31" rx="4.5" fill="white"/>
<rect x="0.5" y="0.5" width="31" height="31" rx="4.5" stroke="#DB1A7D"/>
<path fill-rule="evenodd" clip-rule="evenodd" d="M6 9.64806C6.06484 9.66545 6.28008 9.86057 6.34609 9.92209C6.53007 10.0936 6.4791 10.0836 6.4791 10.409C6.5455 10.4442 6.93007 10.7204 6.93007 10.8036V22.865H8.22615V12.1563C8.51385 12.3489 10.0418 13.5978 10.4562 13.9279L11.1142 14.4533C11.1628 14.4966 11.1851 14.4685 11.1851 14.5517V22.865H11.7769V14.608H19.9208V22.865H20.5126V14.5517C20.5126 14.4658 20.5288 14.5052 20.568 14.4662L21.978 13.3398C22.1005 13.2442 22.2114 13.1497 22.3405 13.0542C22.4212 12.9944 22.4473 12.9614 22.5251 12.9005L23.093 12.454C23.2239 12.3513 23.3417 12.2431 23.4715 12.1563V22.865H24.7678V10.7471C24.8612 10.7223 25.0698 10.5086 25.2186 10.409C25.2186 9.95393 25.1541 10.1182 25.5356 9.76779C25.7436 9.57658 25.6977 9.78967 25.6977 9H6V9.64806Z" fill="#DB1A7D"/>
</svg>
