<svg width="18" height="18" viewBox="0 0 18 18" fill="none" xmlns="http://www.w3.org/2000/svg">
<path d="M9.07146 4.73073V2.31358H9.78574V4.73073H9.07146ZM12.9972 6.36573L12.51 5.87787L14.1936 4.12644L14.7129 4.65001L12.9972 6.36573ZM14.1265 9.78573V9.07144H16.5443V9.78573H14.1265ZM9.07146 16.5443V14.14H9.78574V16.5443H9.07146ZM5.88717 6.34287L4.12646 4.66358L4.6636 4.15787L6.3786 5.86001L5.88717 6.34287ZM14.19 14.73L12.51 12.9786L12.9936 12.5093L14.6993 14.185L14.19 14.73ZM2.3136 9.78573V9.07144H4.73074V9.78573H2.3136ZM4.64931 14.7307L4.15788 14.1936L5.84217 12.51L6.09931 12.7586L6.36931 13.0114L4.64931 14.7307ZM9.43288 13C8.44145 13 7.59765 12.6531 6.90146 11.9593C6.20527 11.2655 5.85717 10.4231 5.85717 9.43215C5.85717 8.4412 6.20407 7.59715 6.89788 6.90001C7.59169 6.20287 8.43407 5.85525 9.42503 5.85715C10.416 5.85906 11.2598 6.20596 11.9565 6.89787C12.6531 7.58977 13.001 8.43215 13 9.42501C12.9991 10.4179 12.6522 11.2617 11.9593 11.9564C11.2665 12.6512 10.4248 12.9991 9.43288 13Z" fill="#222222"/>
</svg>
